<svg aria-hidden="true" style="width:0;height:0;position:absolute;overflow:hidden" xmlns="http://www.w3.org/2000/svg"><defs><symbol id="icon-icon-service-01" viewBox="0 0 37 32"><path d="M33.24 6.654h-3.957V2.697A2.642 2.642 0 0 0 26.645.059H10.818A2.642 2.642 0 0 0 8.18 2.697v3.957H4.223a3.958 3.958 0 0 0-3.957 3.957v18.465a2.642 2.642 0 0 0 2.638 2.638h31.654a2.642 2.642 0 0 0 2.638-2.638V10.611a3.958 3.958 0 0 0-3.957-3.957zM10.818 2.697h15.827v3.957H10.818V2.697zm23.741 26.379H2.905v-11.87h10.551v6.595h10.551v-6.595h10.551v11.87zM16.094 17.205h5.276v3.957h-5.276v-3.957zM2.905 14.568v-3.957a1.322 1.322 0 0 1 1.319-1.319H33.24a1.322 1.322 0 0 1 1.319 1.319v3.957H2.905z"/></symbol><symbol id="icon-icon-service-02" viewBox="0 0 32 32"><path opacity=".15" d="M29.1 9.167H2.9c-.012 0-.02.008-.02.02v3.604c0 2.363 1.96 4.279 4.372 4.279a4.395 4.395 0 0 0 3.804-2.161.66.66 0 0 1 1.144 0A4.384 4.384 0 0 0 16 17.07a4.379 4.379 0 0 0 3.804-2.169.646.646 0 0 1 .556-.32h.024a.64.64 0 0 1 .556.32 4.39 4.39 0 0 0 3.808 2.169c2.412 0 4.372-1.916 4.372-4.279V9.187c0-.012-.008-.02-.02-.02z"/><path d="M30.8 6.326V1.265A1.27 1.27 0 0 0 29.52.001H2.48A1.27 1.27 0 0 0 1.2 1.265v5.061A1.27 1.27 0 0 0 0 7.586v5.204a7.046 7.046 0 0 0 1.2 3.924v13.632c0 .695.572 1.264 1.28 1.264h27.04a1.27 1.27 0 0 0 1.28-1.264V16.714c.244-.36.453-.743.624-1.142A6.99 6.99 0 0 0 32 12.79V7.586a1.27 1.27 0 0 0-1.2-1.26zM4.08 2.845h23.84v3.477H4.08V2.845zm14.48 25.924h-5.12v-4.113h5.12v4.113zm9.376 0H21.12v-5.378a1.27 1.27 0 0 0-1.28-1.264h-7.68a1.27 1.27 0 0 0-1.28 1.264v5.378h-6.8v-9.57c.116.055.236.111.36.158.892.371 1.84.557 2.816.557a7.31 7.31 0 0 0 4.364-1.43.025.025 0 0 1 .024 0c.477.353.997.646 1.548.873.892.371 1.84.557 2.816.557a7.31 7.31 0 0 0 4.364-1.43.025.025 0 0 1 .024 0c.477.353.997.646 1.548.873.892.371 1.84.557 2.816.557a7.31 7.31 0 0 0 3.176-.715v9.57zM29.12 12.79c0 2.363-1.96 4.279-4.372 4.279A4.39 4.39 0 0 1 20.94 14.9a.64.64 0 0 0-.556-.32h-.024a.646.646 0 0 0-.556.32c-.384.661-.938 1.21-1.606 1.591s-1.427.58-2.198.578a4.384 4.384 0 0 1-3.8-2.161.66.66 0 0 0-1.144 0c-.386.659-.941 1.205-1.609 1.585s-1.425.578-2.195.577c-2.412 0-4.372-1.916-4.372-4.279V9.188c0-.012.008-.02.02-.02h26.2c.012 0 .02.008.02.02v3.603z"/></symbol><symbol id="icon-icon-service-03" viewBox="0 0 40 32"><path d="M24.54 7.262h10.104v2.901H24.54V7.262zM24.54 14.516h10.104v2.901H24.54v-2.901zM24.54 21.769h10.104v2.901H24.54v-2.901z"/><path d="M37.53.009H2.89C2.125.01 1.391.316.85.86S.004 2.141.004 2.911v26.112c.001.769.305 1.507.846 2.051s1.275.85 2.04.851h34.64c.765-.001 1.499-.307 2.04-.851s.846-1.281.847-2.05V2.912c-.001-.769-.305-1.507-.846-2.051s-1.275-.85-2.04-.851zM2.89 2.911h15.877v26.112H2.89V2.911zm18.764 26.112V2.911h15.877l.003 26.112h-15.88z"/></symbol></defs></svg>