<svg aria-hidden="true" style="position: absolute; width: 0; height: 0; overflow: hidden;" version="1.1" xmlns="http://www.w3.org/2000/svg" xmlns:xlink="http://www.w3.org/1999/xlink">
<defs>
<symbol id="location" viewBox="0 0 26 32">
<path  d="M12.845 18.93c3.604 0 6.535-2.83 6.535-6.31s-2.931-6.31-6.535-6.31c-3.604 0-6.535 2.83-6.535 6.31s2.931 6.31 6.535 6.31zM12.845 9.465c1.802 0 3.268 1.415 3.268 3.155s-1.466 3.155-3.268 3.155c-1.802 0-3.268-1.415-3.268-3.155s1.466-3.155 3.268-3.155z"></path>
<path  d="M11.914 31.703c0.272 0.193 0.597 0.297 0.931 0.297s0.659-0.104 0.931-0.297c0.488-0.344 11.96-8.598 11.914-18.903 0-7.058-5.763-12.8-12.845-12.8s-12.845 5.742-12.845 12.792c-0.047 10.312 11.426 18.567 11.914 18.911zM12.845 3.2c5.313 0 9.634 4.306 9.634 9.608 0.034 7.101-7.045 13.477-9.634 15.568-2.587-2.093-9.667-8.471-9.634-15.576 0-5.294 4.321-9.6 9.634-9.6z"></path>
</symbol>
<symbol id="message" viewBox="0 0 32 32">
<path  d="M30.805 0.524c-0.175-0.182-0.397-0.307-0.639-0.362s-0.494-0.037-0.726 0.051l-28.601 10.816c-0.247 0.097-0.459 0.27-0.609 0.496s-0.23 0.494-0.23 0.768c0 0.274 0.080 0.542 0.23 0.768s0.362 0.399 0.609 0.496l12.48 5.192 4.992 12.98c0.094 0.245 0.255 0.457 0.462 0.608s0.454 0.236 0.708 0.244c0.263-0.006 0.518-0.094 0.731-0.253s0.376-0.382 0.465-0.639l10.4-29.745c0.089-0.239 0.11-0.5 0.062-0.751s-0.164-0.483-0.335-0.669zM19.482 27.443l-3.627-9.464 6.227-6.476-1.833-1.906-6.279 6.53-9.048-3.826 22.79-8.558-8.229 23.701z"></path>
</symbol>
<symbol id="phone" viewBox="0 0 32 32">
<path  d="M24.857 17.331c-0.156-0.157-0.342-0.281-0.546-0.365s-0.423-0.128-0.644-0.128c-0.221 0-0.44 0.044-0.644 0.128s-0.39 0.209-0.546 0.365l-2.684 2.684c-1.244-0.37-3.566-1.212-5.038-2.684s-2.313-3.793-2.684-5.038l2.684-2.684c0.156-0.156 0.281-0.342 0.365-0.546s0.128-0.423 0.128-0.644c0-0.221-0.044-0.44-0.128-0.644s-0.209-0.39-0.365-0.546l-6.735-6.735c-0.156-0.156-0.342-0.281-0.546-0.365s-0.423-0.128-0.644-0.128c-0.221 0-0.44 0.044-0.644 0.128s-0.39 0.209-0.546 0.365l-4.566 4.566c-0.64 0.64-1 1.519-0.987 2.416 0.039 2.398 0.673 10.725 7.237 17.289s14.891 7.196 17.29 7.237h0.047c0.889 0 1.729-0.35 2.366-0.987l4.566-4.566c0.157-0.156 0.281-0.342 0.365-0.546s0.128-0.423 0.128-0.644c0-0.221-0.044-0.44-0.128-0.644s-0.209-0.39-0.365-0.546l-6.735-6.737zM24.643 28.632c-2.101-0.035-9.291-0.599-14.94-6.25-5.667-5.667-6.216-12.882-6.25-14.941l3.376-3.376 4.354 4.354-2.177 2.177c-0.198 0.198-0.343 0.442-0.423 0.71s-0.092 0.552-0.035 0.826c0.040 0.194 1.029 4.785 3.824 7.58s7.387 3.783 7.58 3.824c0.274 0.059 0.558 0.048 0.826-0.032s0.512-0.226 0.709-0.424l2.179-2.177 4.354 4.354-3.378 3.376z"></path>
</symbol>
</defs>
</svg>
